<?xml version="1.0" encoding="UTF-8"?>
<!DOCTYPE svg PUBLIC "-//W3C//DTD SVG 1.1//EN" "http://www.w3.org/Graphics/SVG/1.1/DTD/svg11.dtd">
<!-- Creator: CorelDRAW 2020 (64 Bit) -->
<svg xmlns="http://www.w3.org/2000/svg" xml:space="preserve" width="47.3112mm" height="30.9447mm" version="1.1" style="shape-rendering:geometricPrecision; text-rendering:geometricPrecision; image-rendering:optimizeQuality; fill-rule:evenodd; clip-rule:evenodd"
viewBox="0 0 3820.35 2498.76"
 xmlns:xlink="http://www.w3.org/1999/xlink"
 xmlns:xodm="http://www.corel.com/coreldraw/odm/2003">
 <defs>
  <style type="text/css">
   <![CDATA[
    .fil0 {fill:#00AFEF;fill-rule:nonzero}
    .fil1 {fill:#1C4F86;fill-rule:nonzero}
    .fil2 {fill:#2681BD;fill-rule:nonzero}
   ]]>
  </style>
 </defs>
 <g id="Camada_x0020_1">
  <metadata id="CorelCorpID_0Corel-Layer"/>
  <path class="fil0" d="M114.08 1214.8l1796.08 -855.85c636.68,303.54 1273.44,606.83 1910.18,910.21l-241.36 115.01 -172.2 -82.04 69.19 -32.97 -1565.81 -746.1 -1565.81 746.1 69.15 32.95 -172.2 82.05 -241.31 -115 114.08 -54.36zm3105.14 340.8l-1309.05 623.77c-436.39,-207.86 -872.74,-415.81 -1309.09,-623.76l172.21 -82.06 1136.88 541.73 1136.87 -541.73 172.18 82.05z"/>
  <path class="fil1" d="M114.08 1534.19l1796.09 -855.85c636.67,303.54 1273.43,606.84 1910.17,910.21l-1910.17 910.21c-636.77,-303.31 -1273.47,-606.77 -1910.17,-910.21l114.08 -54.36zm1796.09 -691.75l-1565.82 746.11 1565.82 746.12 1565.79 -746.12 -1565.79 -746.11z"/>
  <path class="fil2" d="M114.08 855.85l1796.08 -855.85c636.68,303.54 1273.44,606.83 1910.18,910.21l-241.36 115.01 -172.2 -82.04 69.19 -32.97 -1565.81 -746.1 -1565.81 746.1 69.15 32.95 -172.2 82.05 -241.31 -115 114.08 -54.36zm3105.14 340.8l-1309.05 623.77c-436.39,-207.86 -872.74,-415.81 -1309.09,-623.76l172.21 -82.06 1136.88 541.73 1136.87 -541.73 172.18 82.05z"/>
 </g>
</svg>
